<?xml version="1.0" standalone="no"?>
<!DOCTYPE svg PUBLIC "-//W3C//DTD SVG 20010904//EN"
 "http://www.w3.org/TR/2001/REC-SVG-20010904/DTD/svg10.dtd">
<svg version="1.0" xmlns="http://www.w3.org/2000/svg"
 width="3700.000000pt" height="3700.000000pt" viewBox="0 0 3700.000000 3700.000000"
 preserveAspectRatio="xMidYMid meet">

<g transform="translate(0.000000,3700.000000) scale(0.100000,-0.100000)"
fill="#000000" stroke="none">
<path d="M0 18500 l0 -18500 18500 0 18500 0 0 18500 0 18500 -18500 0 -18500
0 0 -18500z m13558 15636 c26 -13 70 -48 98 -78 28 -29 654 -764 1390 -1633
1802 -2128 3565 -4208 3574 -4218 4 -5 556 639 1227 1430 670 791 1521 1794
1889 2228 1609 1898 1894 2231 1926 2252 49 32 84 43 136 43 93 -1 110 -15
547 -450 l410 -409 1755 -4 c1870 -4 1813 -2 2205 -52 1295 -166 2544 -687
3510 -1465 364 -293 697 -643 932 -978 334 -478 522 -982 523 -1405 0 -94 -3
-114 -24 -156 -64 -125 -208 -183 -320 -130 -110 51 -161 139 -169 294 -21
379 -230 812 -610 1265 -40 47 -144 157 -232 245 -882 884 -2210 1516 -3550
1690 -382 50 -326 48 -2230 52 l-1791 4 -3061 -2296 c-2055 -1541 -3066 -2294
-3075 -2289 -7 4 -1386 1038 -3064 2296 l-3052 2289 -1803 -4 c-1592 -3 -1823
-5 -1969 -20 -590 -60 -1071 -162 -1584 -337 -1286 -439 -2405 -1306 -2860
-2217 -129 -259 -184 -452 -200 -706 -9 -135 -62 -219 -170 -268 -117 -53
-262 13 -324 149 -24 52 -25 62 -19 171 30 554 293 1129 775 1693 884 1034
2363 1822 3901 2078 593 98 638 100 2601 100 l1655 0 410 410 c307 307 421
414 455 429 62 28 129 27 188 -3z m1227 -8251 c175 -46 388 -238 503 -455 27
-51 48 -112 66 -190 82 -361 221 -1195 517 -3110 221 -1429 319 -2047 350
-2198 26 -131 148 -302 264 -371 101 -61 189 -42 279 61 87 99 194 343 216
493 37 251 118 667 435 2240 362 1795 426 2144 444 2397 12 164 36 245 96 326
52 71 124 123 215 154 58 21 84 23 251 23 l185 0 76 -38 c138 -68 237 -190
297 -365 25 -73 26 -86 25 -277 -1 -133 -22 -492 -63 -1075 -193 -2759 -245
-4141 -188 -4978 2 -27 -14 -34 -453 -203 -543 -210 -961 -329 -1158 -329 -32
0 -73 -15 -170 -64 l-127 -64 -335 -5 c-429 -7 -602 -27 -815 -98 -315 -104
-558 -301 -722 -584 -69 -118 -188 -515 -214 -714 -13 -100 -6 -245 15 -314
26 -82 112 -248 178 -344 172 -250 369 -429 831 -754 178 -126 274 -176 433
-228 253 -83 538 -126 932 -141 519 -20 1052 16 1495 101 55 10 102 17 104 15
2 -2 -82 -176 -187 -387 -183 -367 -195 -387 -260 -454 -42 -44 -139 -176
-260 -355 -449 -663 -887 -1279 -1390 -1955 -199 -268 -576 -769 -659 -876
l-36 -46 -540 -6 c-690 -8 -881 -24 -1126 -94 -52 -15 -116 -27 -144 -26 -108
2 -381 119 -571 246 -418 278 -780 739 -1035 1319 -39 88 -39 90 -39 216 l0
128 -60 187 c-309 967 -539 1918 -655 2712 -23 159 -45 379 -45 461 0 113 -85
393 -208 689 -68 164 -236 495 -359 710 -208 361 -384 631 -857 1315 -835
1208 -1330 2011 -1504 2440 -80 198 -39 369 124 520 119 110 246 155 419 148
83 -3 108 -8 150 -30 58 -30 120 -93 160 -164 16 -27 76 -101 135 -164 310
-337 580 -650 1510 -1755 776 -922 835 -986 982 -1072 174 -102 291 -138 399
-123 106 15 139 56 147 180 9 150 -62 529 -138 740 -252 695 -825 1960 -1577
3480 -295 596 -338 693 -384 868 -83 322 -19 536 176 584 28 6 73 28 100 49
90 65 133 82 221 87 126 7 182 -14 264 -96 65 -66 70 -74 472 -872 1033 -2050
1699 -3303 1899 -3576 47 -63 186 -194 262 -244 66 -45 150 -67 193 -53 38 13
70 61 79 120 12 78 7 475 -10 798 -65 1257 -259 3863 -350 4698 -16 144 -11
219 19 304 56 159 192 306 359 388 132 64 245 80 362 50z m9325 -6376 c143
-13 273 -42 325 -74 22 -13 71 -40 108 -61 89 -49 175 -130 432 -409 330 -358
549 -562 830 -773 338 -253 751 -494 1135 -662 52 -23 110 -56 128 -73 55 -52
177 -243 241 -377 102 -214 162 -416 203 -675 29 -187 31 -581 4 -780 -18
-137 -71 -414 -81 -423 -3 -3 -5 15 -6 39 0 38 -4 30 -30 -66 -188 -697 -370
-1229 -766 -2235 -210 -532 -290 -747 -328 -875 -13 -44 -46 -129 -73 -190
-190 -421 -263 -932 -249 -1735 4 -190 15 -455 24 -590 16 -212 18 -377 17
-1230 -2 -1189 -16 -1647 -64 -2025 -11 -82 -28 -184 -38 -225 -11 -41 -22
-97 -26 -123 -23 -183 -202 -313 -458 -333 -91 -7 -186 8 -253 40 -153 76
-280 307 -331 603 -84 499 -239 1950 -334 3118 -5 72 -15 218 -20 325 -11 216
-23 271 -77 369 -47 84 -161 203 -226 236 -171 85 -296 -47 -418 -442 -99
-324 -256 -1222 -579 -3322 -137 -885 -213 -1353 -245 -1495 -67 -296 -180
-526 -308 -628 -91 -72 -112 -78 -284 -78 -84 0 -176 5 -205 11 -170 36 -282
148 -324 325 -13 57 -15 105 -11 274 10 340 53 755 297 2840 201 1715 216
1872 201 2075 -11 158 -32 200 -103 211 -61 10 -101 -16 -159 -103 -28 -43
-75 -107 -104 -143 -271 -337 -1761 -2945 -2573 -4503 -184 -353 -214 -396
-317 -444 l-60 -28 -220 0 -220 0 -69 33 c-113 53 -233 193 -329 382 -59 119
-81 200 -81 310 l-1 95 94 205 c51 113 233 520 403 905 1237 2789 1450 3267
1618 3625 120 256 163 406 164 575 1 77 -3 97 -24 140 -34 67 -87 98 -174 97
-74 0 -119 -17 -256 -101 -52 -32 -133 -80 -179 -106 -95 -53 -117 -75 -1121
-1110 -1401 -1443 -2076 -2114 -2355 -2340 -49 -40 -108 -92 -130 -115 -22
-23 -65 -61 -95 -85 -196 -151 -304 -125 -560 134 -184 186 -241 298 -241 471
0 176 39 272 176 434 501 594 1946 2496 2725 3586 543 761 779 1122 1035 1585
443 800 615 1263 616 1656 0 268 -79 440 -258 563 -182 123 -425 164 -913 152
-303 -7 -476 -22 -827 -70 -391 -55 -447 -59 -683 -53 -296 8 -411 24 -810
110 -83 18 -129 35 -215 81 -164 86 -270 160 -366 256 -134 132 -184 254 -159
385 15 78 46 117 123 154 105 52 236 72 597 91 420 22 496 36 685 129 109 53
192 84 364 135 612 184 1206 404 1666 619 158 73 245 118 560 292 596 328
1678 815 2378 1071 450 165 684 228 923 249 121 11 216 27 376 64 117 27 227
51 243 54 64 9 536 6 645 -4z m4012 -1889 c112 -260 231 -666 278 -944 45
-271 52 -397 47 -761 -10 -605 -72 -958 -190 -1082 l-31 -33 52 0 c52 0 52 0
46 -27 -16 -66 -69 -94 -190 -101 -145 -7 -182 25 -191 167 -4 58 0 97 15 161
80 320 128 897 103 1228 -30 397 -136 774 -322 1144 l-60 120 9 84 c17 148 42
165 246 161 l139 -2 49 -115z m1098 -202 c0 -52 9 -84 50 -186 115 -283 192
-613 221 -942 11 -128 7 -414 -7 -535 l-6 -50 61 60 c35 34 61 53 61 44 0 -39
-92 -563 -125 -708 -72 -323 -155 -523 -229 -551 -15 -5 -27 -20 -31 -38 -14
-67 -72 -92 -210 -92 -132 0 -158 26 -171 167 -5 59 -1 85 31 198 67 236 130
521 201 915 76 414 53 768 -73 1149 -24 75 -72 192 -105 261 l-60 125 7 75 c3
41 13 89 22 108 26 54 50 61 216 62 l147 0 0 -62z m-17682 -5444 c42 -16 72
-53 72 -90 0 -45 141 -358 286 -634 201 -383 259 -466 486 -685 155 -151 293
-262 480 -386 157 -103 394 -229 431 -229 59 0 94 -58 104 -175 l6 -75 58 0
c32 0 60 -3 62 -7 12 -20 -20 -78 -53 -98 -31 -18 -52 -20 -200 -20 l-165 0
-166 82 c-186 92 -395 227 -551 355 -137 113 -334 318 -433 451 -221 297 -563
880 -689 1175 -32 73 -36 94 -36 165 0 83 21 154 51 172 39 25 187 24 257 -1z
m-824 -270 c28 -14 69 -41 92 -59 37 -31 42 -40 48 -92 10 -85 77 -275 144
-411 70 -141 155 -277 260 -421 42 -57 112 -156 155 -220 144 -213 306 -398
512 -583 182 -165 430 -348 471 -348 31 0 81 -44 92 -83 6 -18 13 -63 16 -100
l7 -68 -64 -67 c-36 -37 -70 -83 -76 -103 -6 -20 -23 -47 -37 -60 -23 -21 -36
-24 -123 -27 l-97 -4 -85 50 c-416 246 -807 638 -1014 1017 -21 39 -75 129
-120 200 -168 266 -282 496 -355 715 -49 147 -70 249 -77 375 -6 118 10 173
80 268 41 57 43 58 81 52 22 -3 63 -17 90 -31z"/>
</g>
</svg>
